<?xml version="1.0" encoding="UTF-8" standalone="no"?>
<!-- Created with Inkscape (http://www.inkscape.org/) -->

<svg
   xmlns:dc="http://purl.org/dc/elements/1.1/"
   xmlns:cc="http://creativecommons.org/ns#"
   xmlns:rdf="http://www.w3.org/1999/02/22-rdf-syntax-ns#"
   xmlns:svg="http://www.w3.org/2000/svg"
   xmlns="http://www.w3.org/2000/svg"
   xmlns:sodipodi="http://sodipodi.sourceforge.net/DTD/sodipodi-0.dtd"
   xmlns:inkscape="http://www.inkscape.org/namespaces/inkscape"
   width="194.57512"
   height="66.671448"
   id="svg3433"
   version="1.1"
   inkscape:version="0.48.2 r9819"
   sodipodi:docname="New document 2">
  <defs
     id="defs3435">
    <filter
       inkscape:collect="always"
       id="filter4325"
       color-interpolation-filters="sRGB">
      <feBlend
         inkscape:collect="always"
         mode="screen"
         in2="BackgroundImage"
         id="feBlend4327" />
    </filter>
    <filter
       color-interpolation-filters="sRGB"
       inkscape:collect="always"
       id="filter4325-0-8">
      <feBlend
         inkscape:collect="always"
         mode="screen"
         in2="BackgroundImage"
         id="feBlend4327-0-2" />
    </filter>
    <filter
       color-interpolation-filters="sRGB"
       inkscape:collect="always"
       id="filter4325-0-2-3">
      <feBlend
         inkscape:collect="always"
         mode="screen"
         in2="BackgroundImage"
         id="feBlend4327-0-4-64" />
    </filter>
    <filter
       color-interpolation-filters="sRGB"
       inkscape:collect="always"
       id="filter4325-0-2-4-3">
      <feBlend
         inkscape:collect="always"
         mode="screen"
         in2="BackgroundImage"
         id="feBlend4327-0-4-6-8" />
    </filter>
    <filter
       color-interpolation-filters="sRGB"
       inkscape:collect="always"
       id="filter4325-0-1-5-2">
      <feBlend
         inkscape:collect="always"
         mode="screen"
         in2="BackgroundImage"
         id="feBlend4327-0-1-5-3" />
    </filter>
    <filter
       color-interpolation-filters="sRGB"
       inkscape:collect="always"
       id="filter4325-0-2-2-9-7">
      <feBlend
         inkscape:collect="always"
         mode="screen"
         in2="BackgroundImage"
         id="feBlend4327-0-4-9-5-1" />
    </filter>
    <filter
       color-interpolation-filters="sRGB"
       inkscape:collect="always"
       id="filter4325-0-2-4-9-2-5">
      <feBlend
         inkscape:collect="always"
         mode="screen"
         in2="BackgroundImage"
         id="feBlend4327-0-4-6-0-6-9" />
    </filter>
    <filter
       color-interpolation-filters="sRGB"
       inkscape:collect="always"
       id="filter4325-0-6-7-1">
      <feBlend
         inkscape:collect="always"
         mode="screen"
         in2="BackgroundImage"
         id="feBlend4327-0-5-9-3" />
    </filter>
    <filter
       color-interpolation-filters="sRGB"
       inkscape:collect="always"
       id="filter4325-0-2-25-0-4">
      <feBlend
         inkscape:collect="always"
         mode="screen"
         in2="BackgroundImage"
         id="feBlend4327-0-4-0-4-7" />
    </filter>
    <filter
       color-interpolation-filters="sRGB"
       inkscape:collect="always"
       id="filter4325-0-2-4-6-1-2">
      <feBlend
         inkscape:collect="always"
         mode="screen"
         in2="BackgroundImage"
         id="feBlend4327-0-4-6-8-1-5" />
    </filter>
    <inkscape:path-effect
       effect="spiro"
       id="path-effect6369-5"
       is_visible="true" />
  </defs>
  <sodipodi:namedview
     id="base"
     pagecolor="#ffffff"
     bordercolor="#666666"
     borderopacity="1.0"
     inkscape:pageopacity="0.0"
     inkscape:pageshadow="2"
     inkscape:zoom="1.979899"
     inkscape:cx="135.06437"
     inkscape:cy="62.186578"
     inkscape:document-units="px"
     inkscape:current-layer="layer1"
     showgrid="false"
     fit-margin-top="10"
     fit-margin-right="10"
     fit-margin-bottom="10"
     fit-margin-left="10"
     inkscape:window-width="1920"
     inkscape:window-height="1025"
     inkscape:window-x="-2"
     inkscape:window-y="-3"
     inkscape:window-maximized="1" />
  <metadata
     id="metadata3438">
    <rdf:RDF>
      <cc:Work
         rdf:about="">
        <dc:format>image/svg+xml</dc:format>
        <dc:type
           rdf:resource="http://purl.org/dc/dcmitype/StillImage" />
        <dc:title></dc:title>
      </cc:Work>
    </rdf:RDF>
  </metadata>
  <g
     inkscape:label="Layer 1"
     inkscape:groupmode="layer"
     id="layer1"
     transform="translate(6.8078657,0.03471134)">
    <g
       style="display:inline;filter:url(#filter4325);enable-background:new"
       id="g6371"
       transform="translate(-182.25994,-227.79332)">
      <path
         d="m 196.16071,163.52289 c 0,2.46556 -1.99873,4.46428 -4.46428,4.46428 -2.46556,0 -4.46429,-1.99872 -4.46429,-4.46428 0,-2.46556 1.99873,-4.46429 4.46429,-4.46429 2.46555,0 4.46428,1.99873 4.46428,4.46429 z"
         sodipodi:ry="4.4642859"
         sodipodi:rx="4.4642859"
         sodipodi:cy="163.52289"
         sodipodi:cx="191.69643"
         id="path5868-4"
         style="fill:#324264;fill-opacity:1;stroke:none;display:inline;filter:url(#filter4325-0-8)"
         sodipodi:type="arc"
         transform="translate(13.660717,83.482151)" />
      <path
         d="m 196.16071,163.52289 c 0,2.46556 -1.99873,4.46428 -4.46428,4.46428 -2.46556,0 -4.46429,-1.99872 -4.46429,-4.46428 0,-2.46556 1.99873,-4.46429 4.46429,-4.46429 2.46555,0 4.46428,1.99873 4.46428,4.46429 z"
         sodipodi:ry="4.4642859"
         sodipodi:rx="4.4642859"
         sodipodi:cy="163.52289"
         sodipodi:cx="191.69643"
         id="path5868-4-3"
         style="fill:#324264;fill-opacity:1;stroke:none;display:inline;filter:url(#filter4325-0-2-3)"
         sodipodi:type="arc"
         transform="translate(28.035717,83.660722)" />
      <path
         d="m 196.16071,163.52289 c 0,2.46556 -1.99873,4.46428 -4.46428,4.46428 -2.46556,0 -4.46429,-1.99872 -4.46429,-4.46428 0,-2.46556 1.99873,-4.46429 4.46429,-4.46429 2.46555,0 4.46428,1.99873 4.46428,4.46429 z"
         sodipodi:ry="4.4642859"
         sodipodi:rx="4.4642859"
         sodipodi:cy="163.52289"
         sodipodi:cx="191.69643"
         id="path5868-4-3-6"
         style="fill:#324264;fill-opacity:1;stroke:none;display:inline;filter:url(#filter4325-0-2-4-3)"
         sodipodi:type="arc"
         transform="translate(42.053574,83.571436)" />
      <path
         d="m 196.16071,163.52289 c 0,2.46556 -1.99873,4.46428 -4.46428,4.46428 -2.46556,0 -4.46429,-1.99872 -4.46429,-4.46428 0,-2.46556 1.99873,-4.46429 4.46429,-4.46429 2.46555,0 4.46428,1.99873 4.46428,4.46429 z"
         sodipodi:ry="4.4642859"
         sodipodi:rx="4.4642859"
         sodipodi:cy="163.52289"
         sodipodi:cx="191.69643"
         id="path5868-4-6"
         style="fill:#324264;fill-opacity:1;stroke:none;display:inline;filter:url(#filter4325-0-1-5-2)"
         sodipodi:type="arc"
         transform="translate(13.660717,97.482147)" />
      <path
         d="m 196.16071,163.52289 c 0,2.46556 -1.99873,4.46428 -4.46428,4.46428 -2.46556,0 -4.46429,-1.99872 -4.46429,-4.46428 0,-2.46556 1.99873,-4.46429 4.46429,-4.46429 2.46555,0 4.46428,1.99873 4.46428,4.46429 z"
         sodipodi:ry="4.4642859"
         sodipodi:rx="4.4642859"
         sodipodi:cy="163.52289"
         sodipodi:cx="191.69643"
         id="path5868-4-3-9"
         style="fill:#324264;fill-opacity:1;stroke:none;display:inline;filter:url(#filter4325-0-2-2-9-7)"
         sodipodi:type="arc"
         transform="translate(28.035717,97.660727)" />
      <path
         d="m 196.16071,163.52289 c 0,2.46556 -1.99873,4.46428 -4.46428,4.46428 -2.46556,0 -4.46429,-1.99872 -4.46429,-4.46428 0,-2.46556 1.99873,-4.46429 4.46429,-4.46429 2.46555,0 4.46428,1.99873 4.46428,4.46429 z"
         sodipodi:ry="4.4642859"
         sodipodi:rx="4.4642859"
         sodipodi:cy="163.52289"
         sodipodi:cx="191.69643"
         id="path5868-4-3-6-1"
         style="fill:#324264;fill-opacity:1;stroke:none;display:inline;filter:url(#filter4325-0-2-4-9-2-5)"
         sodipodi:type="arc"
         transform="translate(42.053567,97.571437)" />
      <path
         d="m 196.16071,163.52289 c 0,2.46556 -1.99873,4.46428 -4.46428,4.46428 -2.46556,0 -4.46429,-1.99872 -4.46429,-4.46428 0,-2.46556 1.99873,-4.46429 4.46429,-4.46429 2.46555,0 4.46428,1.99873 4.46428,4.46429 z"
         sodipodi:ry="4.4642859"
         sodipodi:rx="4.4642859"
         sodipodi:cy="163.52289"
         sodipodi:cx="191.69643"
         id="path5868-4-1"
         style="fill:#324264;fill-opacity:1;stroke:none;display:inline;filter:url(#filter4325-0-6-7-1)"
         sodipodi:type="arc"
         transform="translate(13.660717,111.48216)" />
      <path
         d="m 196.16071,163.52289 c 0,2.46556 -1.99873,4.46428 -4.46428,4.46428 -2.46556,0 -4.46429,-1.99872 -4.46429,-4.46428 0,-2.46556 1.99873,-4.46429 4.46429,-4.46429 2.46555,0 4.46428,1.99873 4.46428,4.46429 z"
         sodipodi:ry="4.4642859"
         sodipodi:rx="4.4642859"
         sodipodi:cy="163.52289"
         sodipodi:cx="191.69643"
         id="path5868-4-3-7"
         style="fill:#324264;fill-opacity:1;stroke:none;display:inline;filter:url(#filter4325-0-2-25-0-4)"
         sodipodi:type="arc"
         transform="translate(28.035717,111.66074)" />
      <path
         d="m 196.16071,163.52289 c 0,2.46556 -1.99873,4.46428 -4.46428,4.46428 -2.46556,0 -4.46429,-1.99872 -4.46429,-4.46428 0,-2.46556 1.99873,-4.46429 4.46429,-4.46429 2.46555,0 4.46428,1.99873 4.46428,4.46429 z"
         sodipodi:ry="4.4642859"
         sodipodi:rx="4.4642859"
         sodipodi:cy="163.52289"
         sodipodi:cx="191.69643"
         id="path5868-4-3-6-3"
         style="fill:#324264;fill-opacity:1;stroke:none;display:inline;filter:url(#filter4325-0-2-4-6-1-2)"
         sodipodi:type="arc"
         transform="translate(42.053567,111.57145)" />
      <path
         sodipodi:nodetypes="ccccccccccssscccssccc"
         inkscape:connector-curvature="0"
         id="path6312"
         d="m 270.59375,242.625 -18.5625,0.0937 0,36.3125 5.125,0 0,-14.59375 8.0625,0 8.21875,14.21875 0.1875,0.34375 5.625,0 -8.09375,-14 c 0,0 3.61389,-1.71974 4.96875,-3.125 1.21343,-1.25856 2.17252,-2.84257 2.625,-4.53125 0.65319,-2.43776 0.77166,-5.15962 0,-7.5625 -1.67061,-5.20213 -8.15625,-7.15625 -8.15625,-7.15625 z m -13.40625,5.4375 13,0.0312 c 0,0 3.38228,1.2379 3.96875,3.96875 0.28121,1.30943 0.30251,2.69533 0,4 -0.64558,2.78427 -3.9375,3.9375 -3.9375,3.9375 l -13.03125,0 z"
         style="fill:#324264;fill-opacity:1;stroke:none" />
      <path
         inkscape:connector-curvature="0"
         id="path6322"
         d="m 300.53525,242.21875 c -8.36862,0 -15.18262,8.42176 -15.18262,18.8125 0,10.39074 6.814,18.8125 15.18262,18.8125 8.36862,0 15.15225,-8.42176 15.15225,-18.8125 0,-10.39074 -6.78363,-18.8125 -15.15225,-18.8125 z m 0.0304,5.25 c 5.99836,0 10.84039,6.05226 10.84039,13.5 0,7.44774 -4.84203,13.46875 -10.84039,13.46875 -5.99835,0 -10.87075,-6.02101 -10.87075,-13.46875 0,-7.44774 4.8724,-13.5 10.87075,-13.5 z"
         style="fill:#324264;fill-opacity:1;stroke:none" />
      <path
         sodipodi:nodetypes="ccssssssssssssccccscscsssscsc"
         inkscape:connector-curvature="0"
         inkscape:original-d="m 340.71429,250.93361 3.66071,-3.66071 c 0,0 -4.47141,-3.40032 -7.11764,-4.10938 -2.85415,-0.76477 -6.01035,-0.76477 -8.8645,0 -1.90534,0.51053 -3.73004,1.56402 -5.12485,2.95883 -0.9332,0.9332 -1.63804,2.15401 -1.97961,3.42878 -0.53523,1.99751 -0.53523,4.2064 0,6.20391 0.32323,1.20631 0.90093,2.00443 1.78401,2.88751 0.91299,0.91299 1.87023,1.57483 2.99739,2.20459 0.74098,0.414 2.85951,1.13057 3.4595,1.37909 1.89889,0.78655 2.73121,0.49366 4.6301,1.28021 1.71073,0.70861 2.87013,0.71058 4.17947,2.01992 0.60713,0.60713 1.69704,2.15899 1.91926,2.98834 0.2318,0.86507 0.21646,2.17502 -0.12627,3.00244 -0.47428,1.14501 -3.64675,2.63659 -4.5231,3.51294 -2.70923,0.78919 -4.62937,0.0953 -6.85876,-0.57454 -2.26712,-0.72597 -5.21085,-3.69244 -5.21085,-3.69244 l -3.81912,3.64054 c 0,0 5.16001,3.92397 8.21376,4.74222 3.33881,0.89463 6.5822,-0.014 10.03879,-0.014 9.6505,-2.36262 6.55436,0.99419 5.32382,-3.24037 -0.40924,-1.40829 0.87766,-10.06443 0.63695,-11.57584 -0.28472,-2.07428 -4.90699,-5.36006 -3.71896,-3.63604 1.25194,1.81677 -5.97449,-1.11651 -9.63591,-3.23043 -1.07563,-0.62101 -3.49424,-1.97701 -3.96954,-3.1245 -0.51229,-1.23679 -0.51229,-2.77927 0,-4.01606 0.51526,-1.24396 2.35116,-2.47744 2.35116,-2.47744 0,0 5.02918,0.98232 6.86699,0.12627 2.18532,-1.01792 4.8872,2.97617 4.8872,2.97616 z"
         inkscape:path-effect="#path-effect6369-5"
         id="path6367"
         d="m 340.71429,250.93361 3.66071,-3.66071 c -1.98119,-1.93339 -4.45268,-3.36031 -7.11764,-4.10938 -2.88107,-0.80981 -5.98687,-0.82194 -8.8645,0 -1.9208,0.54864 -3.77122,1.48975 -5.12485,2.95883 -0.901,0.97785 -1.55988,2.16711 -1.97961,3.42878 -0.66526,1.9997 -0.72458,4.22493 0,6.20391 0.39162,1.0696 1.00535,2.05619 1.78401,2.88751 0.85192,0.90953 1.89255,1.62811 2.99739,2.20459 1.10214,0.57507 2.27133,1.01348 3.4595,1.37909 1.53056,0.47096 3.09542,0.82285 4.6301,1.28021 1.49392,0.44521 2.99227,1.00969 4.17947,2.01992 0.91603,0.77948 1.62167,1.82294 1.91926,2.98834 0.25139,0.98445 0.2061,2.0423 -0.12627,3.00244 -0.33028,0.95409 -0.9427,1.80857 -1.74009,2.42788 -0.79739,0.61931 -1.77686,1.00119 -2.78301,1.08506 -2.28061,0.44592 -4.68412,0.24458 -6.85876,-0.57454 -2.01416,-0.75867 -3.82747,-2.0436 -5.21085,-3.69244 l -3.81912,3.64054 c 2.2755,2.24417 5.1325,3.89366 8.21376,4.74222 3.26573,0.89936 6.77558,0.89447 10.03879,-0.014 2.07087,-0.44102 3.9808,-1.60351 5.32382,-3.24037 1.30773,-1.59385 2.06963,-3.62073 2.17103,-5.67991 0.10141,-2.05918 -0.45263,-4.14066 -1.53408,-5.89593 -0.91842,-1.49066 -2.21077,-2.74671 -3.71896,-3.63604 -2.92613,-1.72543 -6.46547,-2.01073 -9.63591,-3.23043 -0.80499,-0.30969 -1.59161,-0.68307 -2.28846,-1.1913 -0.69686,-0.50824 -1.30337,-1.1578 -1.68108,-1.9332 -0.60554,-1.24312 -0.57062,-2.75652 0,-4.01606 0.47866,-1.05656 1.32106,-1.9442 2.35116,-2.47744 2.2371,-0.62045 4.65421,-0.57601 6.86699,0.12627 1.83552,0.58254 3.52721,1.61273 4.8872,2.97616"
         style="fill:#324264;fill-opacity:1;stroke:none" />
    </g>
  </g>
</svg>
