<?xml version="1.0" encoding="UTF-8" standalone="no"?>
<!-- Created with Inkscape (http://www.inkscape.org/) -->

<svg
   xmlns:dc="http://purl.org/dc/elements/1.1/"
   xmlns:cc="http://creativecommons.org/ns#"
   xmlns:rdf="http://www.w3.org/1999/02/22-rdf-syntax-ns#"
   xmlns:svg="http://www.w3.org/2000/svg"
   xmlns="http://www.w3.org/2000/svg"
   xmlns:sodipodi="http://sodipodi.sourceforge.net/DTD/sodipodi-0.dtd"
   xmlns:inkscape="http://www.inkscape.org/namespaces/inkscape"
   width="600"
   height="600.00037"
   id="svg3699"
   version="1.1"
   inkscape:version="0.48.2 r9819"
   sodipodi:docname="robotSign.svg"
   inkscape:export-filename="/home/cyborg-x1/Entwicklung/MasterThesis/aa_signs/graphics/stop_imp.png"
   inkscape:export-xdpi="90"
   inkscape:export-ydpi="90">
  <defs
     id="defs3701">
    <inkscape:perspective
       sodipodi:type="inkscape:persp3d"
       inkscape:vp_x="0 : 526.18109 : 1"
       inkscape:vp_y="0 : 1000 : 0"
       inkscape:vp_z="744.09448 : 526.18109 : 1"
       inkscape:persp3d-origin="372.04724 : 350.78739 : 1"
       id="perspective3707" />
    <inkscape:perspective
       id="perspective3729"
       inkscape:persp3d-origin="0.5 : 0.33333333 : 1"
       inkscape:vp_z="1 : 0.5 : 1"
       inkscape:vp_y="0 : 1000 : 0"
       inkscape:vp_x="0 : 0.5 : 1"
       sodipodi:type="inkscape:persp3d" />
  </defs>
  <sodipodi:namedview
     id="base"
     pagecolor="#ffffff"
     bordercolor="#666666"
     borderopacity="1.0"
     inkscape:pageopacity="0.0"
     inkscape:pageshadow="2"
     inkscape:zoom="0.64"
     inkscape:cx="-30.39675"
     inkscape:cy="318.76312"
     inkscape:document-units="px"
     inkscape:current-layer="text4280"
     showgrid="false"
     inkscape:window-width="1920"
     inkscape:window-height="1025"
     inkscape:window-x="-2"
     inkscape:window-y="-3"
     inkscape:window-maximized="1"
     showguides="true"
     inkscape:guide-bbox="true" />
  <metadata
     id="metadata3704">
    <rdf:RDF>
      <cc:Work
         rdf:about="">
        <dc:format>image/svg+xml</dc:format>
        <dc:type
           rdf:resource="http://purl.org/dc/dcmitype/StillImage" />
        <dc:title></dc:title>
      </cc:Work>
    </rdf:RDF>
  </metadata>
  <g
     inkscape:label="Ebene 1"
     inkscape:groupmode="layer"
     id="layer1"
     transform="translate(-1.520306,-451.85167)">
    <g
       style="font-size:100px;font-style:normal;font-variant:normal;font-weight:normal;font-stretch:normal;fill:#000000;fill-opacity:1;stroke:none;font-family:Zeichen Zweihundert;-inkscape-font-specification:Zeichen Zweihundert"
       id="text4280"
       transform="matrix(7.1090047,0,0,7.1090047,-9.2875572,-6425.7695)">
      <path
         d="m 43.720306,968.05205 c 5.866619,8e-5 11.266614,1.10008 16.2,3.3 4.999937,2.13341 9.399933,5.10008 13.2,8.9 3.799925,3.80007 6.766589,8.20006 8.9,13.2 2.199918,4.93339 3.299917,10.33335 3.3,16.20005 -8.3e-5,5.8667 -1.100082,11.3 -3.3,16.3 -2.133411,5 -5.100075,9.4 -8.9,13.2 -3.800067,3.8 -8.200063,6.8 -13.2,9 -4.933386,2.1333 -10.333381,3.2 -16.2,3.2 -5.866702,0 -11.30003,-1.0667 -16.3,-3.2 -5.00002,-2.2 -9.400016,-5.2 -13.2,-9 -3.800008,-3.8 -6.8000053,-8.2 -8.9999999,-13.2 -2.1333344,-5 -3.2,-10.4333 -3.2,-16.3 0,-5.8667 1.0666656,-11.26666 3.2,-16.20005 2.1999946,-4.99994 5.1999919,-9.39993 8.9999999,-13.2 3.799984,-3.79992 8.19998,-6.76659 13.2,-8.9 4.99997,-2.19992 10.433298,-3.29992 16.3,-3.3"
         style="fill:#ffffff"
         id="path7648" />
      <path
         d="m 43.720306,967.45205 c 5.533286,8e-5 10.999947,1.10008 16.4,3.3 l 2.4,1.2 c 2.066604,1.06675 3.999936,2.26674 5.8,3.6 1.866599,1.26674 3.59993,2.70007 5.2,4.3 0.533261,0.53341 1.033261,1.06674 1.5,1.6 0.466593,0.5334 0.966593,1.1334 1.5,1.8 0.666592,0.9334 1.566591,2.1334 2.7,3.6 4.466585,7.06672 6.699916,14.66675 6.7,22.80005 -8.4e-5,5.7333 -1.100083,11.2333 -3.3,16.5 l -1.2,2.4 c -2.000077,4.0666 -4.633408,7.7333 -7.9,11 -0.600071,0.5333 -1.166737,1.0666 -1.7,1.6 -0.533402,0.5333 -1.100069,1 -1.7,1.4 -1.266733,1.0666 -2.500065,1.9666 -3.7,2.7 -6.933391,4.4 -14.50005,6.6 -22.7,6.6 -5.933369,0 -11.433363,-1.1 -16.5,-3.3 -0.266691,-0.1334 -0.600024,-0.2667 -1,-0.4 -0.400024,-0.2 -0.86669,-0.4334 -1.4,-0.7 -2.066687,-0.9334 -4.000019,-2.0667 -5.8,-3.4 -1.800015,-1.3334 -3.533347,-2.8334 -5.2,-4.5 -0.533344,-0.5334 -1.066677,-1.0667 -1.6,-1.6 -0.533343,-0.6 -1.000009,-1.2 -1.4,-1.8 -0.533341,-0.7334 -1.033341,-1.4 -1.4999999,-2 -0.4666735,-0.6 -0.8666731,-1.1667 -1.2,-1.7 -4.4000017,-6.8667 -6.5999995,-14.4667 -6.6,-22.8 5e-7,-5.9333 1.0999994,-11.4 3.3,-16.40005 0.1333304,-0.26661 0.2666636,-0.59994 0.4,-1 0.1999966,-0.39994 0.4333297,-0.86661 0.7,-1.4 1.8666609,-3.93327 4.4999919,-7.59993 7.8999999,-11 1.466654,-1.46659 2.599986,-2.46659 3.4,-3 0.733318,-0.53326 1.399984,-1.03326 2,-1.5 0.599982,-0.46659 1.166648,-0.86659 1.7,-1.2 6.866641,-4.46658 14.466633,-6.69992 22.8,-6.7 m 0,1.1 c -8.0667,8e-5 -15.466693,2.16675 -22.2,6.5 -0.933352,0.46674 -2.133351,1.33341 -3.6,2.6 -1.200015,0.93341 -2.300013,1.93341 -3.3,3 -3.133343,3.1334 -5.7000068,6.70006 -7.6999999,10.7 -0.2666713,0.46673 -0.5000044,0.90006 -0.7,1.3 -0.1333374,0.33339 -0.2666706,0.66673 -0.4,1 -2.133335,5.26672 -3.2000006,10.60005 -3.2,16.00005 -6e-7,8.0667 2.1666639,15.4666 6.5,22.2 0.5333257,0.8666 0.9999919,1.6 1.3999999,2.2 0.399991,0.6 0.766658,1.0666 1.1,1.4 0.466657,0.6 0.933323,1.1666 1.4,1.7 0.533322,0.5333 1.066655,1.0666 1.6,1.6 3.133318,3.1333 6.699981,5.7 10.7,7.7 0.53331,0.2666 0.999976,0.5 1.4,0.7 0.399975,0.1333 0.733308,0.2666 1,0.4 5.199969,2.1333 10.533297,3.2 16,3.2 7.99995,0 15.36661,-2.1667 22.1,-6.5 0.733269,-0.4667 1.366602,-0.9 1.9,-1.3 0.599934,-0.4 1.1666,-0.8 1.7,-1.2 1.199932,-1 2.29993,-2 3.3,-3 3.333259,-3.3334 5.933257,-6.9 7.8,-10.7 0.133255,-0.4 0.266588,-0.8 0.4,-1.2 0.199921,-0.4 0.399921,-0.8 0.6,-1.2 2.199918,-5.0667 3.299917,-10.4 3.3,-16 -8.3e-5,-7.8667 -2.166747,-15.26666 -6.5,-22.20005 -0.400076,-0.53327 -0.833409,-1.09993 -1.3,-1.7 -0.400074,-0.59993 -0.833407,-1.19993 -1.3,-1.8 -0.933406,-1.19993 -1.933405,-2.29993 -3,-3.3 -3.333401,-3.33326 -6.900064,-5.93326 -10.7,-7.8 -0.400059,-0.13325 -0.800059,-0.26659 -1.2,-0.4 -0.400058,-0.19992 -0.766725,-0.39992 -1.1,-0.6 -5.333386,-2.19992 -10.666714,-3.29992 -16,-3.3"
         id="path7650" />
      <path
         d="m 43.720306,980.05205 c -8.200033,7e-5 -15.200026,2.90007 -21,8.7 -5.800015,5.73339 -8.700012,12.70005 -8.7,20.90005 -1.2e-5,8.2 2.899985,15.2 8.7,21 5.799974,5.8 12.799967,8.7 21,8.7 8.19995,0 15.16661,-2.9 20.9,-8.7 5.799932,-5.8 8.699929,-12.8 8.7,-21 -7.1e-5,-8.2 -2.900068,-15.16666 -8.7,-20.90005 -5.73339,-5.79993 -12.70005,-8.69993 -20.9,-8.7 m 0,-9.9 c 5.399953,8e-5 10.499948,1.03341 15.3,3.1 4.799938,2.06674 8.999934,4.90007 12.6,8.5 3.599927,3.60007 6.433257,7.80006 8.5,12.6 2.066587,4.80005 3.099919,9.90005 3.1,15.30005 -8.1e-5,5.4667 -1.033413,10.6 -3.1,15.4 -2.066743,4.8 -4.900073,9 -8.5,12.6 -3.600066,3.6 -7.800062,6.4333 -12.6,8.5 -4.800052,2 -9.900047,3 -15.3,3 -5.466703,0 -10.600031,-1 -15.4,-3 -4.800021,-2.0667 -9.000017,-4.9 -12.6,-8.5 -3.60001,-3.6 -6.4333405,-7.8 -8.4999999,-12.6 -2.0000032,-4.8 -3.0000022,-9.9333 -3,-15.4 -2.2e-6,-5.4 0.9999968,-10.5 3,-15.30005 2.0666594,-4.79994 4.8999899,-8.99993 8.4999999,-12.6 3.599983,-3.59993 7.799979,-6.43326 12.6,-8.5 4.799969,-2.06659 9.933297,-3.09992 15.4,-3.1"
         style="fill:#d40000;fill-opacity:1"
         id="path7652" />
      <path
         style="fill:#000000;stroke:#000000;stroke-width:0.23289177px;stroke-linecap:butt;stroke-linejoin:miter;stroke-opacity:1"
         d="m 61.187207,1009.6521 -17.4669,17.4669 -17.4669,-17.4669 11.6446,0 0,-17.46692 11.6446,0 0,17.46692 z"
         id="path4311"
         inkscape:connector-curvature="0"
         sodipodi:nodetypes="cccccccc"
         inkscape:export-xdpi="90"
         inkscape:export-ydpi="90" />
      <g
         id="g3024"
         transform="matrix(0,0.80729166,-0.79427077,0,868.76591,1078.5118)"
         style="opacity:0.66044778">
        <path
           id="path7648-1"
           style="font-size:100px;font-style:normal;font-variant:normal;font-weight:normal;font-stretch:normal;fill:#ffffff;fill-opacity:1;stroke:none;font-family:Zeichen Zweihundert;-inkscape-font-specification:Zeichen Zweihundert"
           d="m -85.297403,997.28437 c 5.866619,8e-5 11.266614,1.10008 16.199999,3.30003 4.999938,2.1334 9.399934,5.1 13.200002,8.9 3.799924,3.8 6.766588,8.2 8.899999,13.2 2.199919,4.9334 3.299917,10.3333 3.3,16.2 -8.3e-5,5.8667 -1.100081,11.3 -3.3,16.3 -2.133411,5 -5.100075,9.4 -8.899999,13.2 -3.800068,3.8 -8.200064,6.8 -13.200002,9 -4.933385,2.1333 -10.33338,3.2 -16.199999,3.2 -5.866701,0 -11.30003,-1.0667 -16.299997,-3.2 -5.00002,-2.2 -9.40002,-5.2 -13.2,-9 -3.80001,-3.8 -6.80001,-8.2 -9,-13.2 -2.13334,-5 -3.2,-10.4333 -3.2,-16.3 0,-5.8667 1.06666,-11.2666 3.2,-16.2 2.19999,-5 5.19999,-9.4 9,-13.2 3.79998,-3.8 8.19998,-6.7666 13.2,-8.9 4.999967,-2.19995 10.433296,-3.29995 16.299997,-3.30003"
           inkscape:connector-curvature="0" />
        <path
           id="path7650-6"
           d="m -85.297403,996.68437 c 5.533285,8e-5 10.999947,1.10008 16.399999,3.3 l 2.400002,1.20003 c 2.066603,1.0667 3.999935,2.2667 5.799999,3.6 1.866598,1.2667 3.59993,2.7 5.2,4.3 0.533261,0.5334 1.03326,1.0667 1.499999,1.6 0.466594,0.5334 0.966594,1.1334 1.500001,1.8 0.666592,0.9334 1.56659,2.1334 2.699999,3.6 4.466586,7.0667 6.699917,14.6667 6.700002,22.8 -8.5e-5,5.7333 -1.100084,11.2333 -3.300001,16.5 l -1.200001,2.4 c -2.000076,4.0666 -4.633406,7.7333 -7.899999,11 -0.600071,0.5333 -1.166737,1.0666 -1.7,1.6 -0.533402,0.5333 -1.10007,1 -1.7,1.4 -1.266733,1.0666 -2.500065,1.9666 -3.700001,2.7 -6.933389,4.4 -14.500049,6.6 -22.699999,6.6 -5.933369,0 -11.433362,-1.1 -16.499997,-3.3 -0.26669,-0.1334 -0.60003,-0.2667 -1,-0.4 -0.40003,-0.2 -0.86669,-0.4334 -1.4,-0.7 -2.06669,-0.9334 -4.00002,-2.0667 -5.8,-3.4 -1.80002,-1.3334 -3.53335,-2.8334 -5.2,-4.5 -0.53335,-0.5334 -1.06668,-1.0667 -1.6,-1.6 -0.53335,-0.6 -1.00001,-1.2 -1.4,-1.8 -0.53334,-0.7334 -1.03334,-1.4 -1.5,-2 -0.46668,-0.6 -0.86668,-1.1667 -1.2,-1.7 -4.4,-6.8667 -6.6,-14.4667 -6.6,-22.8 0,-5.9333 1.1,-11.4 3.3,-16.4 0.13333,-0.2666 0.26666,-0.6 0.4,-1 0.19999,-0.4 0.43333,-0.8666 0.7,-1.4 1.86666,-3.9333 4.49999,-7.6 7.9,-11 1.46665,-1.4666 2.59998,-2.4666 3.4,-3 0.73331,-0.5333 1.39998,-1.0333 2,-1.5 0.59998,-0.4666 1.16664,-0.8666 1.7,-1.2 6.86664,-4.46661 14.46663,-6.69995 22.799997,-6.70003 m 0,1.1 c -8.0667,8e-5 -15.466697,2.16675 -22.199997,6.50003 -0.93336,0.4667 -2.13335,1.3334 -3.6,2.6 -1.20002,0.9334 -2.30002,1.9334 -3.3,3 -3.13335,3.1334 -5.70001,6.7 -7.7,10.7 -0.26667,0.4667 -0.50001,0.9 -0.7,1.3 -0.13334,0.3334 -0.26667,0.6667 -0.4,1 -2.13334,5.2667 -3.2,10.6 -3.2,16 0,8.0667 2.16666,15.4666 6.5,22.2 0.53332,0.8666 0.99999,1.6 1.4,2.2 0.39999,0.6 0.76665,1.0666 1.1,1.4 0.46665,0.6 0.93332,1.1666 1.4,1.7 0.53332,0.5333 1.06665,1.0666 1.6,1.6 3.13331,3.1333 6.69998,5.7 10.7,7.7 0.53331,0.2666 0.99997,0.5 1.4,0.7 0.39997,0.1333 0.7333,0.2666 1,0.4 5.199966,2.1333 10.533294,3.2 15.999997,3.2 7.99995,0 15.36661,-2.1667 22.1,-6.5 0.733268,-0.4667 1.366602,-0.9 1.9,-1.3 0.599933,-0.4 1.166601,-0.8 1.7,-1.2 1.199932,-1 2.29993,-2 3.299999,-3 3.33326,-3.3334 5.933259,-6.9 7.800001,-10.7 0.133255,-0.4 0.266589,-0.8 0.4,-1.2 0.199921,-0.4 0.399921,-0.8 0.600001,-1.2 2.199917,-5.0667 3.299916,-10.4 3.299999,-16 -8.3e-5,-7.8667 -2.166746,-15.2666 -6.5,-22.2 -0.400076,-0.5333 -0.833409,-1.1 -1.300001,-1.7 -0.400072,-0.6 -0.833406,-1.2 -1.299999,-1.8 -0.933406,-1.2 -1.933405,-2.3 -3.000001,-3.3 -3.3334,-3.3333 -6.900063,-5.9333 -10.7,-7.8 -0.400058,-0.1333 -0.800058,-0.2666 -1.199999,-0.4 -0.400059,-0.2 -0.766724,-0.4 -1.1,-0.6 -5.333386,-2.19995 -10.666714,-3.29995 -16,-3.30003"
           style="font-size:100px;font-style:normal;font-variant:normal;font-weight:normal;font-stretch:normal;fill:#000000;fill-opacity:1;stroke:none;font-family:Zeichen Zweihundert;-inkscape-font-specification:Zeichen Zweihundert"
           inkscape:connector-curvature="0" />
        <path
           id="path7652-4"
           style="font-size:100px;font-style:normal;font-variant:normal;font-weight:normal;font-stretch:normal;fill:#d40000;fill-opacity:1;stroke:none;font-family:Zeichen Zweihundert;-inkscape-font-specification:Zeichen Zweihundert"
           d="m -85.297403,1009.2844 c -8.200034,0 -15.200027,2.9 -20.999997,8.7 -5.80002,5.7334 -8.70002,12.7 -8.7,20.9 -2e-5,8.2 2.89998,15.2 8.7,21 5.79997,5.8 12.799963,8.7 20.999997,8.7 8.19995,0 15.16661,-2.9 20.900001,-8.7 5.799931,-5.8 8.699928,-12.8 8.699999,-21 -7.1e-5,-8.2 -2.900068,-15.1666 -8.699999,-20.9 -5.733391,-5.8 -12.700051,-8.7 -20.900001,-8.7 m 0,-9.90003 c 5.399953,8e-5 10.499948,1.03343 15.3,3.10003 4.799938,2.0667 8.999934,4.9 12.6,8.5 3.599927,3.6 6.433257,7.8 8.5,12.6 2.066588,4.8 3.099919,9.9 3.1,15.3 -8.1e-5,5.4667 -1.033412,10.6 -3.1,15.4 -2.066743,4.8 -4.900073,9 -8.5,12.6 -3.600066,3.6 -7.800062,6.4333 -12.6,8.5 -4.800052,2 -9.900047,3 -15.3,3 -5.466703,0 -10.600031,-1 -15.399997,-3 -4.80002,-2.0667 -9.00002,-4.9 -12.6,-8.5 -3.60001,-3.6 -6.43334,-7.8 -8.5,-12.6 -2.00001,-4.8 -3.00001,-9.9333 -3,-15.4 -1e-5,-5.4 0.99999,-10.5 3,-15.3 2.06666,-4.8 4.89999,-9 8.5,-12.6 3.59998,-3.6 7.79998,-6.4333 12.6,-8.5 4.799966,-2.0666 9.933294,-3.09995 15.399997,-3.10003"
           inkscape:connector-curvature="0" />
        <path
           inkscape:export-ydpi="90"
           inkscape:export-xdpi="90"
           sodipodi:nodetypes="cccccccc"
           inkscape:connector-curvature="0"
           id="path4311-7"
           d="m -67.830502,1038.8844 -17.466901,17.4669 -17.466897,-17.4669 11.644598,0 0,-17.4669 11.6446,0 0,17.4669 z"
           style="font-size:100px;font-style:normal;font-variant:normal;font-weight:normal;font-stretch:normal;fill:#000000;fill-opacity:1;stroke:#000000;stroke-width:0.23289177px;stroke-linecap:butt;stroke-linejoin:miter;stroke-opacity:1;font-family:Zeichen Zweihundert;-inkscape-font-specification:Zeichen Zweihundert" />
      </g>
    </g>
  </g>
</svg>
